<?xml version="1.0" encoding="utf-8"?>
<!-- Generator: Adobe Illustrator 19.1.0, SVG Export Plug-In . SVG Version: 6.00 Build 0)  -->
<!DOCTYPE svg PUBLIC "-//W3C//DTD SVG 1.1//EN" "http://www.w3.org/Graphics/SVG/1.1/DTD/svg11.dtd">
<svg version="1.1" id="Layer_1" xmlns="http://www.w3.org/2000/svg" xmlns:xlink="http://www.w3.org/1999/xlink" x="0px" y="0px"
	width="800px" height="600px" viewBox="445 85 50 50" enable-background="new 0 0 800 600" xml:space="preserve">
<g>
	<circle fill="#18c5a3" cx="454.5" cy="103.5" r="2.5" />
	<circle fill="#18c5a3" cx="464.5" cy="103.5" r="2.5" />
	<circle fill="#18c5a3" cx="474.5" cy="103.5" r="2.5" />
	<path fill="#18c5a3" d="M481,87h-34c-3.3,0-6,2.7-6,6v21c0,3.3,2.7,6,6,6h5.5c0.8,0,1.5-0.7,1.5-1.5s-0.7-1.5-1.5-1.5H447
		c-1.7,0-3-1.3-3-3V93c0-1.7,1.3-3,3-3h34c1.7,0,3,1.3,3,3v21c0,1.7-1.3,3-3,3h-15.1l-9.9,9.9c-0.6,0.6-0.6,1.5,0,2.1
		c0.3,0.3,0.7,0.4,1.1,0.4s0.8-0.1,1.1-0.4l9.1-9.1H481c3.3,0,6-2.7,6-6V93C487,89.7,484.3,87,481,87z" />
</g>
</svg>

